<svg xmlns="http://www.w3.org/2000/svg" version="1.1" xmlns:xlink="http://www.w3.org/1999/xlink" xmlns:svgjs="http://svgjs.com/svgjs" height="73.42999267578125" width="262.4800109863281"><defs id="SvgjsDefs1924"></defs><g id="SvgjsG1925" rel="mainfill" name="main_text" xmlns:name="main_text" transform="translate(-0.4700000286102295,-190.97999572753906)" fill="#FF3D7F"><path d="M33.51 237.88Q32.58 239.79 31.39 239.79Q30.45 239.79 30.07 238.73Q29.68 237.67 29.57 236.22Q29.47 234.77 29.55 233.24Q29.63 231.71 29.57 230.78Q29.42 225.91 29.11 221.95Q28.80 217.99 28.38 214.88Q27.24 206.28 25.43 206.28Q24.86 206.28 24.11 207.47Q23.36 208.67 22.69 209.99Q22.01 211.31 21.65 212.21Q21.29 213.12 21.49 212.55Q20.61 214.31 19.94 218.30Q18.96 219.13 18.13 219.13Q17.71 219.13 17.22 218.27Q16.73 217.42 16.26 216.15Q15.80 214.88 15.38 213.46Q14.97 212.03 14.68 210.89Q14.40 209.75 14.27 209.13Q14.14 208.51 14.24 208.82Q12.95 205.25 10.77 205.25Q9.32 205.25 8.49 207.71Q7.67 210.17 6.99 215.24Q6.73 217.31 6.32 221.04Q5.90 224.77 5.39 230.16Q4.97 234.15 4.66 236.32Q4.35 238.50 4.14 238.81Q3.31 239.95 2.12 239.95Q0.47 239.95 0.47 238.14Q0.47 237.82 0.52 237.02Q0.57 236.22 0.57 235.80Q0.57 229.23 0.93 223.66Q1.29 218.09 2.02 213.53Q4.40 199.03 10.00 199.03Q16.42 199.03 18.75 211.10Q20.04 200.02 26.47 198.98Q30.97 200.07 31.65 206.65Q32.84 210.17 33.51 237.88ZM41.33 204.47L41.33 209.24Q36.93 207.99 36.93 203.95Q36.93 202.19 37.60 200.90L39.62 200.90Q41.33 203.54 41.33 204.47M43.09 217.42Q41.90 213.90 38.84 213.90Q37.96 215.71 37.24 217.42Q36.51 219.13 35.84 220.73Q35.37 221.87 35.37 224.36Q35.37 224.57 35.43 225.45Q35.48 226.33 35.56 227.36Q35.63 228.40 35.69 229.28Q35.74 230.16 35.74 230.37Q35.74 230.37 35.71 231.58Q35.69 232.80 35.63 235.24Q35.58 235.96 35.66 236.69Q35.74 237.41 35.84 238.08Q35.94 239.07 36.64 239.56Q37.34 240.05 38.12 240.10Q38.90 240.16 39.54 239.79Q40.19 239.43 40.19 238.71Q40.19 238.08 40.17 236.63Q40.14 235.18 40.09 233.58Q40.04 231.97 40.01 230.52Q39.98 229.07 39.98 228.45Q39.98 225.08 43.09 217.42ZM66.14 218.14Q66.14 219.75 65.41 220.71Q64.69 221.67 63.60 221.51Q62.98 221.41 62.23 220.78Q61.48 220.16 61.48 219.85Q61.48 218.71 59.35 218.71Q57.65 218.71 56.61 220.06Q55.57 221.41 55.57 223.43Q55.57 224.57 56.14 225.39Q56.71 226.22 57.52 226.95Q58.32 227.67 59.28 228.29Q60.24 228.92 61.06 229.59Q62.05 230.42 62.51 231.56Q62.98 232.70 62.98 233.84Q62.98 234.61 62.82 235.44Q61.94 238.14 60.47 239.40Q58.99 240.67 56.30 240.67Q51.38 240.67 48.12 238.19Q45.11 236.01 45.27 233.84Q45.32 233.22 46.23 232.59Q47.13 231.97 48.01 232.08Q50.14 234.61 51.12 235.29Q52.62 236.37 54.59 236.37Q55.26 236.37 56.04 236.12Q56.82 235.86 57.49 235.42Q58.16 234.98 58.60 234.35Q59.04 233.73 59.04 233.11Q59.04 232.18 58.16 231.22Q57.28 230.26 56.17 229.38Q55.06 228.50 54.02 227.78Q52.98 227.05 52.78 226.59Q51.79 224.93 51.79 223.06Q51.79 219.49 54.07 217.26Q57.33 215.66 60.44 215.66Q63.29 215.66 66.14 218.14ZM89.29 218.14Q89.29 219.75 88.57 220.71Q87.84 221.67 86.75 221.51Q86.13 221.41 85.38 220.78Q84.63 220.16 84.63 219.85Q84.63 218.71 82.51 218.71Q80.80 218.71 79.76 220.06Q78.73 221.41 78.73 223.43Q78.73 224.57 79.29 225.39Q79.86 226.22 80.67 226.95Q81.47 227.67 82.43 228.29Q83.39 228.92 84.22 229.59Q85.20 230.42 85.67 231.56Q86.13 232.70 86.13 233.84Q86.13 234.61 85.98 235.44Q85.10 238.14 83.62 239.40Q82.14 240.67 79.45 240.67Q74.53 240.67 71.27 238.19Q68.26 236.01 68.42 233.84Q68.47 233.22 69.38 232.59Q70.28 231.97 71.16 232.08Q73.29 234.61 74.27 235.29Q75.77 236.37 77.74 236.37Q78.41 236.37 79.19 236.12Q79.97 235.86 80.64 235.42Q81.31 234.98 81.75 234.35Q82.20 233.73 82.20 233.11Q82.20 232.18 81.31 231.22Q80.43 230.26 79.32 229.38Q78.21 228.50 77.17 227.78Q76.14 227.05 75.93 226.59Q74.94 224.93 74.94 223.06Q74.94 219.49 77.22 217.26Q80.49 215.66 83.59 215.66Q86.44 215.66 89.29 218.14ZM96.65 204.47L96.65 209.24Q92.24 207.99 92.24 203.95Q92.24 202.19 92.92 200.90L94.94 200.90Q96.65 203.54 96.65 204.47M98.41 217.42Q97.22 213.90 94.16 213.90Q93.28 215.71 92.55 217.42Q91.83 219.13 91.16 220.73Q90.69 221.87 90.69 224.36Q90.69 224.57 90.74 225.45Q90.79 226.33 90.87 227.36Q90.95 228.40 91.00 229.28Q91.05 230.16 91.05 230.37Q91.05 230.37 91.03 231.58Q91.00 232.80 90.95 235.24Q90.90 235.96 90.97 236.69Q91.05 237.41 91.16 238.08Q91.26 239.07 91.96 239.56Q92.66 240.05 93.43 240.10Q94.21 240.16 94.86 239.79Q95.51 239.43 95.51 238.71Q95.51 238.08 95.48 236.63Q95.45 235.18 95.40 233.58Q95.35 231.97 95.32 230.52Q95.30 229.07 95.30 228.45Q95.30 225.08 98.41 217.42ZM121.45 218.14Q121.45 219.75 120.73 220.71Q120.00 221.67 118.92 221.51Q118.29 221.41 117.54 220.78Q116.79 220.16 116.79 219.85Q116.79 218.71 114.67 218.71Q112.96 218.71 111.92 220.06Q110.89 221.41 110.89 223.43Q110.89 224.57 111.46 225.39Q112.03 226.22 112.83 226.95Q113.63 227.67 114.59 228.29Q115.55 228.92 116.38 229.59Q117.36 230.42 117.83 231.56Q118.29 232.70 118.29 233.84Q118.29 234.61 118.14 235.44Q117.26 238.14 115.78 239.40Q114.31 240.67 111.61 240.67Q106.69 240.67 103.43 238.19Q100.43 236.01 100.58 233.84Q100.63 233.22 101.54 232.59Q102.45 231.97 103.33 232.08Q105.45 234.61 106.43 235.29Q107.94 236.37 109.90 236.37Q110.58 236.37 111.35 236.12Q112.13 235.86 112.80 235.42Q113.48 234.98 113.92 234.35Q114.36 233.73 114.36 233.11Q114.36 232.18 113.48 231.22Q112.60 230.26 111.48 229.38Q110.37 228.50 109.33 227.78Q108.30 227.05 108.09 226.59Q107.11 224.93 107.11 223.06Q107.11 219.49 109.39 217.26Q112.65 215.66 115.76 215.66Q118.61 215.66 121.45 218.14ZM171.38 237.88Q170.45 239.79 169.26 239.79Q168.33 239.79 167.94 238.73Q167.55 237.67 167.45 236.22Q167.34 234.77 167.42 233.24Q167.50 231.71 167.45 230.78Q167.29 225.91 166.98 221.95Q166.67 217.99 166.25 214.88Q165.12 206.28 163.30 206.28Q162.73 206.28 161.98 207.47Q161.23 208.67 160.56 209.99Q159.88 211.31 159.52 212.21Q159.16 213.12 159.37 212.55Q158.49 214.31 157.81 218.30Q156.83 219.13 156.00 219.13Q155.59 219.13 155.09 218.27Q154.60 217.42 154.14 216.15Q153.67 214.88 153.25 213.46Q152.84 212.03 152.56 210.89Q152.27 209.75 152.14 209.13Q152.01 208.51 152.12 208.82Q150.82 205.25 148.65 205.25Q147.20 205.25 146.37 207.71Q145.54 210.17 144.86 215.24Q144.61 217.31 144.19 221.04Q143.78 224.77 143.26 230.16Q142.84 234.15 142.53 236.32Q142.22 238.50 142.02 238.81Q141.19 239.95 140.00 239.95Q138.34 239.95 138.34 238.14Q138.34 237.82 138.39 237.02Q138.44 236.22 138.44 235.80Q138.44 229.23 138.80 223.66Q139.17 218.09 139.89 213.53Q142.27 199.03 147.87 199.03Q154.29 199.03 156.62 211.10Q157.92 200.02 164.34 198.98Q168.84 200.07 169.52 206.65Q170.71 210.17 171.38 237.88ZM194.27 225.45L195.88 229.49L195.73 231.82L193.96 236.32Q190.60 240.31 186.66 240.31Q183.92 240.31 180.50 239.02Q176.15 237.36 174.85 234.77Q173.25 231.61 173.25 229.85Q173.25 228.81 173.71 227.62Q174.18 226.43 175.03 225.19Q175.89 223.94 177.00 222.78Q178.12 221.61 179.46 220.68Q182.47 218.61 185.26 218.61Q185.57 218.61 186.30 218.84Q187.02 219.08 187.80 219.39Q188.58 219.70 189.23 220.01Q189.87 220.32 190.03 220.58Q192.36 222.13 194.27 225.45M191.17 230.99Q191.17 230.06 190.55 228.71Q189.92 227.36 188.99 226.12Q188.06 224.88 186.97 223.97Q185.88 223.06 184.85 223.06Q183.50 223.06 182.28 223.74Q181.07 224.41 180.11 225.47Q179.15 226.53 178.58 227.88Q178.01 229.23 178.01 230.52Q178.01 231.61 178.71 232.62Q179.41 233.63 180.55 234.41Q181.69 235.18 183.14 235.65Q184.59 236.12 186.14 236.12Q187.08 236.12 187.96 235.62Q188.84 235.13 189.56 234.38Q190.29 233.63 190.73 232.72Q191.17 231.82 191.17 230.99ZM213.75 240.10L213.59 237.41L213.33 237.31Q210.18 241.09 206.29 241.09Q205.82 241.09 205.00 240.96Q204.17 240.83 203.31 240.65Q202.46 240.47 201.68 240.26Q200.90 240.05 200.59 239.84Q199.56 239.12 198.63 237.75Q197.69 236.37 197.54 235.34Q197.38 234.30 197.23 232.98Q197.07 231.66 196.86 230.00Q196.81 229.49 196.79 228.89Q196.76 228.29 196.76 227.57Q196.76 225.19 197.23 223.48Q197.85 221.25 199.45 221.25Q200.54 221.25 201.34 221.64Q202.15 222.03 202.15 222.65Q202.15 224.57 201.68 226.53Q201.22 228.50 201.27 230.57Q201.53 237.41 206.29 237.41Q207.22 237.41 208.28 236.92Q209.35 236.43 210.28 235.65Q211.21 234.87 211.86 233.86Q212.51 232.85 212.66 231.76Q212.92 229.54 213.05 227.36Q213.18 225.19 213.28 223.12Q213.59 222.75 213.93 222.34Q214.27 221.92 214.63 221.41L217.27 221.82Q217.32 221.82 217.32 222.08Q217.32 222.34 217.32 222.65Q217.32 223.01 217.30 224.25Q217.27 225.50 217.19 227.18Q217.12 228.86 217.06 230.75Q217.01 232.65 216.93 234.33Q216.86 236.01 216.83 237.25Q216.80 238.50 216.80 238.86Q216.80 239.90 216.60 240.08Q216.39 240.26 215.41 240.26Q214.63 240.26 213.75 240.10ZM240.27 218.14Q240.27 219.75 239.54 220.71Q238.82 221.67 237.73 221.51Q237.11 221.41 236.36 220.78Q235.61 220.16 235.61 219.85Q235.61 218.71 233.48 218.71Q231.77 218.71 230.74 220.06Q229.70 221.41 229.70 223.43Q229.70 224.57 230.27 225.39Q230.84 226.22 231.64 226.95Q232.45 227.67 233.40 228.29Q234.36 228.92 235.19 229.59Q236.18 230.42 236.64 231.56Q237.11 232.70 237.11 233.84Q237.11 234.61 236.95 235.44Q236.07 238.14 234.60 239.40Q233.12 240.67 230.43 240.67Q225.51 240.67 222.24 238.19Q219.24 236.01 219.39 233.84Q219.45 233.22 220.35 232.59Q221.26 231.97 222.14 232.08Q224.26 234.61 225.25 235.29Q226.75 236.37 228.72 236.37Q229.39 236.37 230.17 236.12Q230.94 235.86 231.62 235.42Q232.29 234.98 232.73 234.35Q233.17 233.73 233.17 233.11Q233.17 232.18 232.29 231.22Q231.41 230.26 230.30 229.38Q229.18 228.50 228.15 227.78Q227.11 227.05 226.90 226.59Q225.92 224.93 225.92 223.06Q225.92 219.49 228.20 217.26Q231.46 215.66 234.57 215.66Q237.42 215.66 240.27 218.14ZM260.52 235.96Q261.45 237.00 261.45 237.77Q261.45 238.86 260.41 239.69Q259.38 240.52 258.01 241.06Q256.63 241.61 255.26 241.89Q253.89 242.18 253.22 242.18Q250.78 242.18 248.58 241.14Q246.38 240.10 244.72 238.34Q243.06 236.58 242.11 234.33Q241.15 232.08 241.15 229.69Q241.15 225.55 243.84 222.18Q246.84 218.35 252.23 218.25Q255.44 218.25 259.07 220.84Q262.95 223.63 262.95 226.79Q262.95 228.09 260.78 228.40Q259.90 228.50 259.20 227.57Q258.50 226.64 257.72 225.47Q256.94 224.31 256.04 223.32Q255.13 222.34 253.84 222.34Q246.64 222.34 246.69 226.27Q246.69 227.10 246.84 228.04Q249.90 228.76 255.08 228.76L257.57 228.76Q260.73 228.76 261.86 229.33L261.92 230.99Q259.53 232.44 256.79 232.44Q256.22 232.44 255.47 232.39Q254.72 232.33 254.56 232.33Q253.47 232.33 252.02 232.13Q250.57 231.92 249.80 231.92Q249.23 231.92 248.66 231.97Q248.09 232.02 247.57 232.13Q247.52 232.70 247.49 233.06Q247.47 233.42 247.47 233.53Q247.47 237.72 251.66 237.72Q254.61 237.72 260.52 235.96Z" fill="#FF3D7F" style="fill: rgb(255, 61, 127);"></path></g><g id="SvgjsG1926" rel="mainfill" name="slogan_text" xmlns:name="slogan_text" transform="translate(1.0699926614761353,-170.07000732421875)" fill="#FF3D7F"><path d="M1.11 240L3.21 240L7.05 234.87C7.36 234.47 7.64 234.09 7.97 233.66L8.00 233.66C7.95 233.98 7.95 234.63 7.95 235.05L7.95 240L10.21 240L10.21 230.26L7.95 230.26L4.24 235.18C3.93 235.58 3.65 235.95 3.37 236.36L3.34 236.36C3.37 235.86 3.37 235.15 3.37 234.77L3.37 230.26L1.11 230.26ZM12.09 240L14.32 240L14.32 237.30L16.63 237.30L16.63 240L18.86 240L18.86 233.01L16.63 233.01L16.63 235.33L14.32 235.33L14.32 233.01L12.09 233.01ZM22.01 240L24.24 240L24.24 234.84L26.18 234.84L26.74 233.01L19.97 233.01L19.97 234.84L22.01 234.84ZM34.09 237.18L34.09 236.66C34.09 234.28 32.86 232.83 30.76 232.83C28.56 232.83 27.42 234.49 27.42 236.59C27.42 238.37 28.42 240.15 31.20 240.15C32.12 240.15 33.01 239.97 33.83 239.47L33.18 237.96C32.67 238.26 32.12 238.43 31.38 238.43C30.43 238.43 29.70 238.03 29.65 237.18ZM29.62 235.70C29.62 235.08 29.98 234.49 30.72 234.49C31.53 234.49 31.84 235.09 31.85 235.70ZM35.24 243.50L37.47 243.50L37.47 240.04C37.80 240.12 38.11 240.15 38.42 240.15C40.74 240.15 42.14 238.55 42.14 236.50C42.14 234.32 40.83 232.83 38.12 232.83C37.01 232.83 36.02 233.04 35.24 233.29ZM37.47 238.23L37.47 234.71C37.65 234.66 37.82 234.65 38.03 234.65C39.21 234.65 39.86 235.27 39.86 236.51C39.86 237.62 39.35 238.33 38.24 238.33C37.93 238.33 37.71 238.29 37.47 238.23ZM43.37 240L46.22 240C48.70 240 49.59 238.99 49.59 237.61C49.59 236.41 48.79 235.28 46.35 235.28C46.12 235.28 45.81 235.30 45.60 235.31L45.60 233.01L43.37 233.01ZM45.60 238.33L45.60 236.98C45.76 236.97 46.03 236.96 46.22 236.96C47.21 236.96 47.39 237.28 47.39 237.64C47.39 238.02 47.23 238.33 46.18 238.33ZM57.14 237.18L57.14 236.66C57.14 234.28 55.92 232.83 53.82 232.83C51.62 232.83 50.48 234.49 50.48 236.59C50.48 238.37 51.48 240.15 54.26 240.15C55.18 240.15 56.06 239.97 56.89 239.47L56.24 237.96C55.72 238.26 55.18 238.43 54.44 238.43C53.49 238.43 52.75 238.03 52.71 237.18ZM52.68 235.70C52.68 235.08 53.03 234.49 53.77 234.49C54.59 234.49 54.90 235.09 54.91 235.70ZM58.30 243.50L60.53 243.50L60.53 240.04C60.85 240.12 61.16 240.15 61.47 240.15C63.80 240.15 65.20 238.55 65.20 236.50C65.20 234.32 63.88 232.83 61.18 232.83C60.07 232.83 59.08 233.04 58.30 233.29ZM60.53 238.23L60.53 234.71C60.71 234.66 60.88 234.65 61.09 234.65C62.27 234.65 62.92 235.27 62.92 236.51C62.92 237.62 62.41 238.33 61.30 238.33C60.99 238.33 60.77 238.29 60.53 238.23ZM66.43 240L68.66 240L68.66 237.30L70.96 237.30L70.96 240L73.20 240L73.20 233.01L70.96 233.01L70.96 235.33L68.66 235.33L68.66 233.01L66.43 233.01ZM74.73 240L77.53 240C79.86 240 80.72 238.99 80.72 237.61C80.72 236.41 79.95 235.28 77.66 235.28C77.44 235.28 77.17 235.30 76.97 235.31L76.97 233.01L74.73 233.01ZM76.97 238.33L76.97 236.98C77.13 236.97 77.35 236.96 77.53 236.96C78.40 236.96 78.52 237.30 78.52 237.64C78.52 238.00 78.41 238.33 77.48 238.33ZM81.58 240L83.81 240L83.81 233.01L81.58 233.01ZM91.73 237.18L91.73 236.66C91.73 234.28 90.50 232.83 88.41 232.83C86.20 232.83 85.07 234.49 85.07 236.59C85.07 238.37 86.07 240.15 88.85 240.15C89.77 240.15 90.65 239.97 91.48 239.47L90.83 237.96C90.31 238.26 89.77 238.43 89.03 238.43C88.08 238.43 87.34 238.03 87.30 237.18ZM87.27 235.70C87.27 235.08 87.62 234.49 88.36 234.49C89.17 234.49 89.48 235.09 89.50 235.70ZM96.05 240L98.24 240L100.04 237.38C100.42 236.82 100.79 236.19 100.93 235.94L100.97 235.94C100.93 236.32 100.90 236.93 100.90 237.50L100.90 240L103.07 240L103.07 233.01L100.88 233.01L99.08 235.62C98.69 236.19 98.32 236.82 98.19 237.07L98.15 237.07C98.19 236.69 98.22 236.08 98.22 235.51L98.22 233.01L96.05 233.01ZM104.61 240L106.84 240L106.84 234.97L109.48 234.97L110.09 233.01L104.61 233.01ZM111.09 243.50L113.33 243.50L113.33 240.04C113.65 240.12 113.96 240.15 114.27 240.15C116.59 240.15 118.00 238.55 118.00 236.50C118.00 234.32 116.68 232.83 113.98 232.83C112.87 232.83 111.88 233.04 111.09 233.29ZM113.33 238.23L113.33 234.71C113.50 234.66 113.68 234.65 113.89 234.65C115.07 234.65 115.72 235.27 115.72 236.51C115.72 237.62 115.20 238.33 114.10 238.33C113.79 238.33 113.56 238.29 113.33 238.23ZM126.62 233.01L124.32 233.01L122.80 237.44L122.77 237.44L120.91 233.01L118.54 233.01L121.75 239.88C121.22 241.32 120.67 241.71 119.98 241.71C119.59 241.71 119.24 241.60 118.87 241.40L118.31 243.12C118.86 243.37 119.49 243.50 120.10 243.50C121.46 243.50 122.67 243.15 123.90 240ZM127.41 240L137.30 240L137.30 233.01L135.13 233.01L135.13 238.11L133.44 238.11L133.44 233.01L131.27 233.01L131.27 238.11L129.59 238.11L129.59 233.01L127.41 233.01ZM138.84 240L141.07 240L141.07 237.27L141.97 237.27C142.16 237.27 142.33 237.46 142.48 237.86L143.23 240L145.65 240L144.40 237.28C144.20 236.87 143.94 236.63 143.61 236.50L143.61 236.47C144.07 236.16 144.15 235.37 144.49 234.96C144.60 234.83 144.75 234.75 144.96 234.75C145.12 234.75 145.28 234.78 145.40 234.83L145.40 232.95C145.17 232.86 144.75 232.83 144.53 232.83C143.86 232.83 143.45 233.07 143.17 233.42C142.53 234.24 142.56 235.60 141.77 235.60L141.07 235.60L141.07 233.01L138.84 233.01ZM146.57 240L148.76 240L150.56 237.38C150.94 236.82 151.31 236.19 151.45 235.94L151.49 235.94C151.45 236.32 151.42 236.93 151.42 237.50L151.42 240L153.59 240L153.59 233.01L151.40 233.01L149.60 235.62C149.22 236.19 148.85 236.82 148.71 237.07L148.67 237.07C148.71 236.69 148.74 236.08 148.74 235.51L148.74 233.01L146.57 233.01ZM158.17 243.50L160.40 243.50L160.40 240.04C160.73 240.12 161.04 240.15 161.35 240.15C163.67 240.15 165.08 238.55 165.08 236.50C165.08 234.32 163.76 232.83 161.06 232.83C159.95 232.83 158.96 233.04 158.17 233.29ZM160.40 238.23L160.40 234.71C160.58 234.66 160.76 234.65 160.97 234.65C162.15 234.65 162.80 235.27 162.80 236.51C162.80 237.62 162.28 238.33 161.17 238.33C160.86 238.33 160.64 238.29 160.40 238.23ZM173.69 233.01L171.40 233.01L169.88 237.44L169.85 237.44L167.99 233.01L165.62 233.01L168.83 239.88C168.30 241.32 167.75 241.71 167.06 241.71C166.67 241.71 166.32 241.60 165.95 241.40L165.39 243.12C165.93 243.37 166.57 243.50 167.17 243.50C168.53 243.50 169.75 243.15 170.97 240ZM178.63 240L180.86 240L180.86 233.01L178.63 233.01L178.63 235.91C178.35 235.96 178.04 235.98 177.79 235.98C176.97 235.98 176.63 235.71 176.63 235.17L176.63 233.01L174.40 233.01L174.40 235.45C174.40 236.97 175.51 237.74 177.54 237.74C177.85 237.74 178.22 237.72 178.63 237.68ZM182.40 240L184.63 240L184.63 237.30L186.94 237.30L186.94 240L189.17 240L189.17 233.01L186.94 233.01L186.94 235.33L184.63 235.33L184.63 233.01L182.40 233.01ZM194.08 240.15C196.25 240.15 197.76 238.61 197.76 236.48C197.76 234.35 196.25 232.83 194.08 232.83C191.90 232.83 190.40 234.35 190.40 236.48C190.40 238.61 191.90 240.15 194.08 240.15ZM194.08 238.39C193.09 238.39 192.67 237.56 192.67 236.48C192.67 235.40 193.09 234.59 194.08 234.59C195.07 234.59 195.48 235.40 195.48 236.48C195.48 237.56 195.07 238.39 194.08 238.39ZM198.98 240L201.17 240L202.97 237.38C203.36 236.82 203.73 236.19 203.86 235.94L203.91 235.94C203.86 236.32 203.83 236.93 203.83 237.50L203.83 240L206.00 240L206.00 233.01L203.82 233.01L202.01 235.62C201.63 236.19 201.26 236.82 201.13 237.07L201.08 237.07C201.13 236.69 201.16 236.08 201.16 235.51L201.16 233.01L198.98 233.01ZM202.55 232.05C204.39 232.05 205.37 230.91 205.31 229.27L203.49 229.27C203.49 229.93 203.27 230.48 202.55 230.48C201.82 230.48 201.60 229.93 201.60 229.27L199.78 229.27C199.72 230.91 200.70 232.05 202.55 232.05ZM210.59 243.50L212.82 243.50L212.82 240.04C213.14 240.12 213.45 240.15 213.76 240.15C216.09 240.15 217.49 238.55 217.49 236.50C217.49 234.32 216.17 232.83 213.47 232.83C212.36 232.83 211.37 233.04 210.59 233.29ZM212.82 238.23L212.82 234.71C213.00 234.66 213.17 234.65 213.38 234.65C214.56 234.65 215.21 235.27 215.21 236.51C215.21 237.62 214.70 238.33 213.59 238.33C213.28 238.33 213.06 238.29 212.82 238.23ZM223.03 240L224.87 240C224.75 239.62 224.75 239.05 224.75 238.63L224.75 235.49C224.75 233.79 223.86 232.83 221.70 232.83C220.59 232.83 219.65 233.10 218.82 233.51L219.51 234.92C220.02 234.65 220.70 234.49 221.29 234.49C222.04 234.49 222.52 234.75 222.52 235.40L222.52 235.48L221.41 235.52C220.70 235.55 220.06 235.68 219.56 235.95C218.83 236.33 218.39 236.91 218.39 237.86C218.39 239.20 219.40 240.15 220.77 240.15C221.64 240.15 222.25 239.82 222.72 239.41ZM222.52 236.88L222.52 238.18C222.35 238.29 221.98 238.43 221.50 238.43C220.96 238.43 220.62 238.20 220.62 237.71C220.62 237.41 220.73 237.24 220.93 237.10C221.13 236.98 221.41 236.93 221.76 236.91ZM229.65 240.15C232.09 240.15 233.33 238.55 233.33 236.41C233.33 234.69 232.34 233.22 230.28 233.22C229.49 233.22 228.81 233.45 228.31 233.72L228.28 233.72C228.37 233.20 228.56 232.77 228.78 232.55C229.21 232.12 229.92 232.03 232.85 231.47L232.85 229.53C229.54 230.13 228.49 230.21 227.51 231.07C226.55 231.90 226.05 233.90 226.05 235.55C226.05 238.86 227.53 240.15 229.65 240.15ZM229.71 238.39C228.80 238.39 228.24 237.46 228.24 235.64C228.24 235.58 228.24 235.43 228.25 235.27C228.75 235.03 229.34 234.90 229.80 234.90C230.79 234.90 231.06 235.77 231.06 236.60C231.06 237.53 230.72 238.39 229.71 238.39ZM237.95 240.15C240.12 240.15 241.63 238.61 241.63 236.48C241.63 234.35 240.12 232.83 237.95 232.83C235.77 232.83 234.27 234.35 234.27 236.48C234.27 238.61 235.77 240.15 237.95 240.15ZM237.95 238.39C236.96 238.39 236.54 237.56 236.54 236.48C236.54 235.40 236.96 234.59 237.95 234.59C238.94 234.59 239.35 235.40 239.35 236.48C239.35 237.56 238.94 238.39 237.95 238.39ZM244.47 240L246.70 240L246.70 234.84L248.63 234.84L249.19 233.01L242.43 233.01L242.43 234.84L244.47 234.84ZM250.16 240L252.95 240C255.28 240 256.14 238.99 256.14 237.61C256.14 236.41 255.37 235.28 253.08 235.28C252.86 235.28 252.59 235.30 252.39 235.31L252.39 233.01L250.16 233.01ZM252.39 238.33L252.39 236.98C252.55 236.97 252.77 236.96 252.95 236.96C253.82 236.96 253.94 237.30 253.94 237.64C253.94 238.00 253.84 238.33 252.91 238.33ZM257.00 240L259.23 240L259.23 233.01L257.00 233.01Z"></path></g></svg>
